# xmcd
#
# Track frame offsets: 
#        150
#        16832
#        33692
#        59753
#        76984
#        98810
#        117104
#        141078
#        160969
#        177775
#
# Disc length: 2778 seconds
#
# Revision: 0
# Processed by: cddbd v1.5.2PL0 Copyright (c) Steve Scherf et al.
# Submitted via: ExactAudioCopy v0.99pb3
#
DISCID=7e0ad80a
DTITLE=Jesse Brewster - Wrecking Ball at the Concert Hall
DYEAR=2008
DGENRE=Folk/Rock
TTITLE0=All Those Things I Said
TTITLE1=Fuel for the Fire
TTITLE2=All She Deserves
TTITLE3=God Fearin' Man
TTITLE4=Dive to Drown In
TTITLE5=My Great Escape
TTITLE6=Sometime
TTITLE7=I'm Not Broken
TTITLE8=Consider This
TTITLE9=Sorry Ain't Enough
EXTD=
EXTT0=
EXTT1=
EXTT2=
EXTT3=
EXTT4=
EXTT5=
EXTT6=
EXTT7=
EXTT8=
EXTT9=
PLAYORDER=
